<?xml version="1.0" standalone="no"?>
<!DOCTYPE svg PUBLIC "-//W3C//DTD SVG 20010904//EN"
 "http://www.w3.org/TR/2001/REC-SVG-20010904/DTD/svg10.dtd">
<svg version="1.0" xmlns="http://www.w3.org/2000/svg"
 width="192.000000pt" height="192.000000pt" viewBox="0 0 192.000000 192.000000"
 preserveAspectRatio="xMidYMid meet">
<metadata>
Created by potrace 1.11, written by Peter Selinger 2001-2013
</metadata>
<g transform="translate(0.000000,192.000000) scale(0.100000,-0.100000)"
fill="#000000" stroke="none">
<path d="M65 1608 c-4 -11 -18 -18 -32 -18 l-26 0 7 -182 c4 -101 8 -201 10
-223 2 -22 4 -54 5 -71 1 -23 7 -34 24 -39 32 -11 71 -13 77 -4 3 4 28 11 55
14 28 4 69 15 91 25 35 15 47 28 78 90 33 67 36 79 36 159 -1 49 -6 95 -13
107 -21 35 -51 68 -79 87 -34 22 -144 51 -164 43 -8 -3 -17 1 -21 9 -4 11 -9
13 -18 5 -9 -8 -14 -7 -18 2 -3 9 -7 8 -12 -4z m161 -158 c0 0 10 -8 20 -17
44 -40 51 -107 16 -165 -18 -31 -110 -78 -120 -61 -4 6 -8 65 -10 131 -3 133
-1 137 63 120 16 -4 30 -8 31 -8z"/>
<path d="M1486 1593 c-61 -2 -115 -8 -122 -14 -15 -12 -10 -75 7 -96 7 -7 7
-13 2 -13 -6 0 -9 -60 -9 -147 1 -82 -1 -161 -4 -178 -9 -44 -2 -63 23 -63 12
0 40 -1 62 -2 54 -1 174 6 179 11 17 17 15 126 -2 115 -4 -2 -38 -7 -76 -11
-67 -7 -69 -7 -63 14 3 11 2 19 -3 16 -4 -3 -10 4 -13 15 -3 11 -1 20 4 20 5
0 9 5 9 11 0 5 -5 7 -12 3 -7 -4 -8 -3 -4 5 7 12 83 10 103 -2 4 -2 18 -1 31
4 19 7 22 16 22 58 0 63 -9 66 -122 45 -26 -4 -38 -3 -38 5 0 6 3 10 8 10 19
-3 21 3 8 29 -9 18 -11 33 -5 43 5 8 9 10 9 4 0 -5 5 -3 10 5 5 8 10 10 10 5
0 -6 15 -10 33 -9 17 1 44 2 59 3 30 1 43 26 39 76 -1 26 -17 48 -31 43 -3 -1
-54 -4 -114 -5z m-65 -135 c-4 -32 -5 -32 -11 -8 -7 26 -4 40 9 40 4 0 5 -15
2 -32z"/>
<path d="M437 1582 c-8 -15 -4 -492 4 -498 5 -3 7 -10 4 -15 -4 -5 1 -9 9 -9
9 0 16 4 16 9 0 5 15 7 33 5 17 -2 37 -1 44 4 12 8 17 66 10 114 -3 21 0 27
21 31 21 4 27 -2 48 -50 13 -30 26 -62 27 -71 5 -30 16 -39 53 -40 20 -1 44
-4 54 -7 9 -3 23 1 29 9 10 12 4 32 -31 105 -38 79 -41 91 -27 99 21 13 39 86
39 156 0 82 -36 134 -104 150 -42 10 -224 17 -229 8z m183 -135 c16 -8 26 -22
27 -37 1 -30 -24 -73 -40 -67 -7 2 -22 0 -34 -4 -28 -10 -29 -4 -22 89 3 36
24 42 69 19z"/>
<path d="M806 1522 c7 -76 7 -316 1 -379 -3 -26 0 -47 8 -53 13 -10 90 -9 101
3 8 8 6 356 -2 369 -3 4 0 8 6 8 6 0 10 6 9 13 -1 6 -1 26 0 42 2 30 2 29 16
-10 29 -77 79 -221 114 -325 l36 -105 52 -1 52 -2 15 53 c9 29 18 68 20 87 3
18 9 45 15 58 18 44 89 254 95 282 l6 28 -57 -4 c-32 -3 -61 -5 -65 -5 -3 -1
-12 -25 -19 -53 -6 -29 -20 -71 -29 -93 -27 -63 -37 -134 -18 -128 8 3 4 -24
-6 -34 -4 -4 -6 -1 -4 7 2 9 -4 15 -12 14 -10 -1 -16 8 -17 25 0 14 -10 60
-22 101 -25 87 -29 103 -35 130 -8 36 -20 43 -56 30 -3 -1 -17 -1 -32 0 -16 1
-28 -4 -28 -10 0 -10 -3 -10 -15 0 -8 6 -41 14 -74 16 l-60 3 5 -67z"/>
<path d="M1688 1583 c-3 -4 -3 -32 0 -61 l4 -53 96 2 c68 2 100 7 107 16 15
20 6 90 -12 97 -25 10 -34 -4 -27 -39 5 -29 3 -33 -13 -31 -11 2 -20 14 -23
31 -3 17 -14 31 -29 36 -22 9 -23 7 -19 -26 4 -31 2 -36 -16 -33 -15 2 -20 11
-21 33 0 23 -5 31 -22 33 -11 2 -23 0 -25 -5z"/>
<path d="M1686 1445 c-2 -5 1 -20 5 -33 7 -19 15 -23 41 -20 31 3 33 1 36 -33
3 -35 2 -36 -33 -37 -46 -2 -52 -6 -50 -34 2 -22 5 -23 106 -23 57 -1 107 0
110 2 3 1 4 15 1 31 -3 25 -8 28 -35 27 -32 -2 -45 11 -46 48 -1 12 7 17 27
17 34 0 47 9 56 38 6 17 3 22 -11 23 -114 5 -203 2 -207 -6z"/>
<path d="M1696 1242 c-8 -13 -10 -151 -2 -159 17 -18 37 -10 43 17 5 29 6 29
86 32 79 3 80 3 84 31 4 30 0 31 -113 29 -49 -1 -52 1 -58 29 -5 27 -28 39
-40 21z"/>
<path d="M729 990 c-105 -34 -163 -95 -197 -207 -22 -69 -23 -180 -4 -250 16
-55 69 -132 111 -160 74 -50 226 -63 296 -26 61 32 105 81 137 153 93 204 59
339 -115 459 -73 50 -144 59 -228 31z m186 -207 c19 -19 35 -40 35 -46 1 -7 5
-31 9 -54 6 -32 4 -51 -9 -80 -38 -84 -85 -113 -169 -107 -63 5 -85 24 -104
88 -13 47 -14 67 -4 117 9 52 17 66 51 95 22 19 41 32 43 30 3 -2 16 -1 31 3
37 11 76 -5 117 -46z"/>
<path d="M1630 1002 c-81 -6 -77 2 -72 -129 2 -65 4 -206 5 -313 1 -107 6
-200 10 -207 5 -8 56 -11 171 -11 l164 1 4 69 c2 39 1 73 -2 77 -3 4 -49 7
-102 6 l-98 -1 0 37 c0 21 -2 44 -5 51 -4 11 2 13 27 11 71 -6 161 -4 170 5
10 10 15 123 5 139 -4 6 -25 11 -48 11 -23 1 -44 3 -47 6 -3 3 -11 1 -19 -6
-7 -6 -16 -8 -20 -5 -3 4 -14 2 -24 -4 -13 -7 -19 -6 -19 2 0 7 -7 8 -17 4
-32 -12 -53 -14 -53 -4 0 5 6 9 13 8 27 -3 37 2 37 21 0 11 -6 20 -12 20 -10
0 -9 3 1 9 7 5 11 13 8 17 -3 5 0 14 7 19 17 15 56 18 56 4 0 -9 3 -9 14 0 9
8 16 8 20 2 9 -14 84 -11 96 5 7 7 12 37 12 66 1 89 4 84 -64 87 -109 5 -182
6 -218 3z m60 -118 c0 -8 -9 -14 -20 -14 -19 0 -27 19 -14 33 10 9 34 -4 34
-19z m-70 -36 c0 -52 -13 -42 -17 13 -2 25 0 38 7 34 5 -3 10 -25 10 -47z m94
36 c3 -8 2 -12 -4 -9 -6 3 -10 10 -10 16 0 14 7 11 14 -7z m6 -183 c7 -3 -32
-19 -47 -20 -7 -1 -10 5 -7 13 4 11 34 15 54 7z m-15 -62 c-8 -12 -45 -12 -45
0 0 10 30 20 43 14 4 -3 5 -9 2 -14z"/>
<path d="M512 992 c-6 -5 -33 -7 -59 -5 -52 4 -57 -1 -73 -62 -6 -22 -14 -47
-17 -55 -3 -8 -7 -19 -7 -25 -1 -5 -10 -37 -20 -70 -39 -127 -53 -194 -45
-207 5 -7 9 -19 9 -27 0 -11 -3 -11 -15 -1 -8 7 -12 16 -9 21 3 5 2 9 -3 8
-19 -3 -27 2 -15 10 11 6 8 24 -12 87 -14 43 -37 131 -51 193 -14 63 -30 118
-36 121 -5 4 -27 5 -47 3 -20 -2 -48 -4 -62 -4 -59 1 -60 5 42 -294 19 -55 47
-140 63 -190 48 -157 56 -174 69 -169 7 3 31 1 54 -4 40 -9 42 -9 61 22 17 29
32 72 37 106 1 8 8 39 17 68 9 29 16 53 16 55 0 1 2 9 5 17 18 57 30 97 32
106 1 6 21 66 44 133 40 118 49 179 22 163z m-249 -476 c-3 -14 -12 -27 -20
-30 -9 -4 -11 -2 -6 7 4 6 8 20 9 30 2 27 3 29 13 23 4 -3 6 -17 4 -30z"/>
<path d="M1089 982 c-1 -10 0 -21 1 -27 1 -5 4 -30 5 -55 2 -25 4 -49 4 -53 1
-4 30 -5 65 -2 47 4 65 2 69 -8 3 -7 5 -118 5 -246 1 -166 4 -236 12 -241 9
-6 85 -6 121 -1 4 1 7 90 7 199 0 108 1 215 4 236 4 39 4 39 68 55 71 18 78
29 76 116 l-1 40 -217 2 c-196 1 -218 -1 -219 -15z m286 -90 c-11 -2 -25 -8
-31 -13 -11 -9 -24 -2 -24 12 0 10 41 16 60 10 11 -4 10 -6 -5 -9z m-155 -2
c13 -8 13 -10 -2 -10 -9 0 -20 5 -23 10 -8 13 5 13 25 0z"/>
</g>
</svg>
