<svg width="42" height="42" xmlns="http://www.w3.org/2000/svg"><path d="M13.14 34.627c.076.265.117.545.117.835V39a3 3 0 0 1-3 3H7.345a3 3 0 0 1-3-3v-3.538c0-.29.042-.57.118-.835H2.91C.97 33.354 0 31.162 0 28.049v-6.286L6.55 4.636C8.794 1.546 13.682 0 21.215 0 28.748 0 33.7 1.545 36.074 4.636L42 21.763v6.286c-.352 4.385-1.347 6.578-2.987 6.578h-1.119c.077.265.118.545.118.835V39a3 3 0 0 1-3 3H32.1a3 3 0 0 1-3-3v-3.538c0-.29.041-.57.118-.835H13.14zm-3.004-7.28c2.07 0 3.75.746 3.75-1.47s-1.68-4.012-3.75-4.012c-2.07 0-5.79 1.239-5.79 3.455s3.72 2.026 5.79 2.026zm21.723 0c2.07 0 5.79.189 5.79-2.027s-3.72-3.455-5.79-3.455-3.749 1.796-3.749 4.012c0 2.216 1.678 1.47 3.749 1.47zm-10.79-8.729H34.03c1.18 0 1.77-.916 1.77-2.75l-2.805-8.946c-1.727-2.251-5.702-3.377-11.926-3.377-6.223 0-10.025 1.126-11.406 3.377-1.8 4.313-2.834 7.295-3.101 8.946-.267 1.652.517 2.568 2.352 2.75H21.07z" fill="#2196F3" fill-rule="evenodd"/></svg>