<svg width="42" height="42" xmlns="http://www.w3.org/2000/svg"><path d="M21 12.6c2.3 0 4.2-1.6 4.2-3.6S23.3 5.5 21 5.5c-2.3 0-4.2 1.6-4.2 3.6s1.9 3.5 4.2 3.5zm.1 1.6c-3.5 0-5.4 1.2-5.9 3.6h11.6c-.6-2.5-2.5-3.7-5.7-3.6z" fill-rule="evenodd" clip-rule="evenodd" fill="#b71c1c"/><path d="M36.1 4.6C33.7 1.5 28.7 0 21.2 0S8.8 1.5 6.6 4.6L0 21.8V28c0 3.1 1 5.3 2.9 6.6h1.6c-.1.3-.1.5-.1.8V39c0 1.7 1.3 3 3 3h2.9c1.7 0 3-1.3 3-3v-3.5c0-.3 0-.6-.1-.8h16.1c-.1.3-.1.5-.1.8V39c0 1.7 1.3 3 3 3H35c1.7 0 3-1.3 3-3v-3.5c0-.3 0-.6-.1-.8H39c1.6 0 2.6-2.2 3-6.6v-6.3L36.1 4.6zM6.6 15.9c.3-1.7 1.3-4.6 3.1-8.9 1.4-2.3 5.2-3.4 11.4-3.4S31.3 4.7 33 7l2.8 8.9c0 1.8-.6 2.8-1.8 2.8H8.9c-1.8-.3-2.6-1.2-2.3-2.8zm3.5 11.4c-2.1 0-5.8.2-5.8-2s3.7-3.5 5.8-3.5 3.8 1.8 3.8 4-1.7 1.5-3.8 1.5zm21.8 0c-2.1 0-3.7.7-3.7-1.5s1.7-4 3.7-4 5.8 1.2 5.8 3.5-3.8 2-5.8 2z" fill-rule="evenodd" clip-rule="evenodd" fill="#b71c1c"/></svg>