<svg xmlns="http://www.w3.org/2000/svg" width="42" height="42"><path d="M13.1 34.6c.1.3.1.5.1.8V39c0 1.7-1.3 3-3 3H7.3c-1.7 0-3-1.3-3-3v-3.5c0-.3 0-.6.1-.8H2.9C1 33.4 0 31.2 0 28v-6.3L6.6 4.6C8.8 1.5 13.7 0 21.2 0s12.5 1.5 14.9 4.6L42 21.8V28c-.4 4.4-1.3 6.6-3 6.6h-1.1c.1.3.1.5.1.8V39c0 1.7-1.3 3-3 3h-2.9c-1.7 0-3-1.3-3-3v-3.5c0-.3 0-.6.1-.8H13.1zm-3-7.3c2.1 0 3.8.7 3.8-1.5s-1.7-4-3.8-4-5.8 1.2-5.8 3.5 3.8 2 5.8 2zm21.8 0c2.1 0 5.8.2 5.8-2s-3.7-3.5-5.8-3.5-3.7 1.8-3.7 4 1.6 1.5 3.7 1.5zm-10.8-8.7h13c1.2 0 1.8-.9 1.8-2.8L33 6.9c-1.7-2.3-5.7-3.4-11.9-3.4s-10 1.1-11.4 3.4c-1.8 4.3-2.8 7.3-3.1 8.9-.3 1.7.5 2.6 2.4 2.8h12.1z" fill-rule="evenodd" clip-rule="evenodd"/><path d="M34 18.6c1.2 0 1.8-.9 1.8-2.8L33 6.9c-1.7-2.3-5.7-3.4-11.9-3.4s-10 1.1-11.4 3.4c-1.8 4.3-2.8 7.3-3.1 8.9-.3 1.7.5 2.6 2.4 2.8h12.2M10.1 27.3c2.1 0 3.8.7 3.8-1.5s-1.7-4-3.8-4-5.8 1.2-5.8 3.5 3.8 2 5.8 2M31.9 27.3c2.1 0 5.8.2 5.8-2s-3.7-3.5-5.8-3.5-3.7 1.8-3.7 4 1.6 1.5 3.7 1.5" fill-rule="evenodd" clip-rule="evenodd" fill="#fff"/></svg>